# xmcd
#
# Track frame offsets: 
#        150
#        29689
#        46266
#        58380
#        76740
#        96363
#        109570
#        126141
#        142089
#        165114
#        183528
#        199215
#        212619
#
# Disc length: 3103 seconds
#
# Revision: 0
# Processed by: cddbd v1.5.2PL0 Copyright (c) Steve Scherf et al.
# Submitted via: ExactAudioCopy v0.99pb5
#
DISCID=b60c1d0d
DTITLE=Kenny Chesney - Hemingway's Whiskey (Deluxe Edition)
DYEAR=2010
DGENRE=Country
TTITLE0=The Boys of Fall
TTITLE1=Live a Little
TTITLE2=Coastal
TTITLE3=You and Tequila
TTITLE4=Seven Days
TTITLE5=Small Y'all
TTITLE6=Where I Grew Up
TTITLE7=Reality
TTITLE8=Round and Round
TTITLE9=Somewhere With You
TTITLE10=Hemingway's Whiskey
TTITLE11=Ain't Ever Going Back Again (Bonus Track)
TTITLE12=I Didn't Get Here Alone (Bonus Track)
EXTD=
EXTT0=
EXTT1=
EXTT2=
EXTT3=
EXTT4=
EXTT5=
EXTT6=
EXTT7=
EXTT8=
EXTT9=
EXTT10=
EXTT11=
EXTT12=
PLAYORDER=
